<svg xmlns="http://www.w3.org/2000/svg" xmlns:xlink="http://www.w3.org/1999/xlink" width="500" zoomAndPan="magnify" viewBox="0 0 375 374.999991" height="500" preserveAspectRatio="xMidYMid meet" version="1.0"><defs><clipPath id="4753eade17"><path d="M 25.132812 25.132812 L 349.882812 25.132812 L 349.882812 349.882812 L 25.132812 349.882812 Z M 25.132812 25.132812 " clip-rule="nonzero"/></clipPath><clipPath id="38eecec4d1"><path d="M 158 59 L 304 59 L 304 173 L 158 173 Z M 158 59 " clip-rule="nonzero"/></clipPath><clipPath id="ccdbfd4dd0"><path d="M 195.199219 32 L 326.375 111.566406 L 289.351562 172.609375 L 158.171875 93.046875 Z M 195.199219 32 " clip-rule="nonzero"/></clipPath><clipPath id="bf66476e1c"><path d="M 195.199219 32 L 326.375 111.566406 L 258.234375 223.914062 L 127.054688 144.347656 Z M 195.199219 32 " clip-rule="nonzero"/></clipPath><clipPath id="fe47a2bebd"><path d="M 140 230 L 172 230 L 172 268 L 140 268 Z M 140 230 " clip-rule="nonzero"/></clipPath><clipPath id="105f1afd90"><path d="M 247.246094 98.644531 L 290.96875 277.171875 L 112.445312 320.894531 L 68.71875 142.367188 Z M 247.246094 98.644531 " clip-rule="nonzero"/></clipPath><clipPath id="d9d1ee54fb"><path d="M 247.246094 98.644531 L 290.96875 277.171875 L 112.445312 320.894531 L 68.71875 142.367188 Z M 247.246094 98.644531 " clip-rule="nonzero"/></clipPath><clipPath id="b3fecc8de8"><path d="M 108 244 L 167 244 L 167 315 L 108 315 Z M 108 244 " clip-rule="nonzero"/></clipPath><clipPath id="6e84947b94"><path d="M 247.246094 98.644531 L 290.96875 277.171875 L 112.445312 320.894531 L 68.71875 142.367188 Z M 247.246094 98.644531 " clip-rule="nonzero"/></clipPath><clipPath id="2b9dc30dc3"><path d="M 247.246094 98.644531 L 290.96875 277.171875 L 112.445312 320.894531 L 68.71875 142.367188 Z M 247.246094 98.644531 " clip-rule="nonzero"/></clipPath><clipPath id="d94ed1bb99"><path d="M 126 113 L 266 113 L 266 253 L 126 253 Z M 126 113 " clip-rule="nonzero"/></clipPath><clipPath id="6b33a6e6be"><path d="M 247.246094 98.644531 L 290.96875 277.171875 L 112.445312 320.894531 L 68.71875 142.367188 Z M 247.246094 98.644531 " clip-rule="nonzero"/></clipPath><clipPath id="91b9b1197b"><path d="M 247.246094 98.644531 L 290.96875 277.171875 L 112.445312 320.894531 L 68.71875 142.367188 Z M 247.246094 98.644531 " clip-rule="nonzero"/></clipPath><clipPath id="a9197025fd"><path d="M 154 141 L 206 141 L 206 210 L 154 210 Z M 154 141 " clip-rule="nonzero"/></clipPath><clipPath id="3a370fc7fe"><path d="M 247.246094 98.644531 L 290.96875 277.171875 L 112.445312 320.894531 L 68.71875 142.367188 Z M 247.246094 98.644531 " clip-rule="nonzero"/></clipPath><clipPath id="e08e566332"><path d="M 247.246094 98.644531 L 290.96875 277.171875 L 112.445312 320.894531 L 68.71875 142.367188 Z M 247.246094 98.644531 " clip-rule="nonzero"/></clipPath></defs><g clip-path="url(#4753eade17)"><path fill="#240046" d="M 349.855469 187.496094 C 349.855469 190.152344 349.789062 192.808594 349.660156 195.460938 C 349.53125 198.117188 349.335938 200.765625 349.074219 203.410156 C 348.8125 206.054688 348.488281 208.691406 348.097656 211.316406 C 347.707031 213.945312 347.253906 216.5625 346.734375 219.171875 C 346.21875 221.777344 345.636719 224.367188 344.988281 226.945312 C 344.34375 229.523438 343.636719 232.082031 342.863281 234.625 C 342.09375 237.167969 341.261719 239.691406 340.363281 242.191406 C 339.46875 244.695312 338.515625 247.171875 337.496094 249.628906 C 336.480469 252.082031 335.402344 254.511719 334.265625 256.914062 C 333.132812 259.316406 331.9375 261.6875 330.683594 264.03125 C 329.433594 266.375 328.121094 268.6875 326.757812 270.964844 C 325.390625 273.246094 323.96875 275.488281 322.492188 277.699219 C 321.015625 279.90625 319.488281 282.078125 317.90625 284.214844 C 316.320312 286.347656 314.6875 288.441406 313 290.496094 C 311.316406 292.550781 309.582031 294.5625 307.796875 296.53125 C 306.011719 298.5 304.179688 300.421875 302.300781 302.300781 C 300.421875 304.179688 298.5 306.011719 296.53125 307.796875 C 294.5625 309.582031 292.550781 311.316406 290.496094 313 C 288.441406 314.6875 286.347656 316.320312 284.214844 317.90625 C 282.078125 319.488281 279.90625 321.015625 277.699219 322.492188 C 275.488281 323.96875 273.246094 325.390625 270.964844 326.757812 C 268.6875 328.121094 266.375 329.433594 264.03125 330.683594 C 261.6875 331.9375 259.316406 333.132812 256.914062 334.265625 C 254.511719 335.402344 252.082031 336.480469 249.628906 337.496094 C 247.171875 338.515625 244.695312 339.46875 242.191406 340.363281 C 239.691406 341.261719 237.167969 342.09375 234.625 342.863281 C 232.082031 343.636719 229.523438 344.34375 226.945312 344.988281 C 224.367188 345.636719 221.777344 346.21875 219.171875 346.734375 C 216.5625 347.253906 213.945312 347.707031 211.316406 348.097656 C 208.691406 348.488281 206.054688 348.8125 203.410156 349.074219 C 200.765625 349.335938 198.117188 349.53125 195.460938 349.660156 C 192.808594 349.789062 190.152344 349.855469 187.496094 349.855469 C 184.839844 349.855469 182.183594 349.789062 179.527344 349.660156 C 176.875 349.53125 174.226562 349.335938 171.582031 349.074219 C 168.9375 348.8125 166.300781 348.488281 163.671875 348.097656 C 161.042969 347.707031 158.425781 347.253906 155.820312 346.734375 C 153.214844 346.21875 150.621094 345.636719 148.042969 344.988281 C 145.46875 344.34375 142.90625 343.636719 140.363281 342.863281 C 137.820312 342.09375 135.300781 341.261719 132.796875 340.363281 C 130.296875 339.46875 127.816406 338.515625 125.363281 337.496094 C 122.90625 336.480469 120.480469 335.402344 118.078125 334.265625 C 115.675781 333.132812 113.300781 331.9375 110.957031 330.683594 C 108.617188 329.433594 106.304688 328.121094 104.023438 326.757812 C 101.746094 325.390625 99.5 323.96875 97.292969 322.492188 C 95.082031 321.015625 92.910156 319.488281 90.777344 317.90625 C 88.640625 316.320312 86.546875 314.6875 84.496094 313 C 82.441406 311.316406 80.429688 309.582031 78.460938 307.796875 C 76.492188 306.011719 74.566406 304.179688 72.6875 302.300781 C 70.808594 300.421875 68.976562 298.5 67.195312 296.53125 C 65.410156 294.5625 63.675781 292.550781 61.988281 290.496094 C 60.304688 288.441406 58.667969 286.347656 57.085938 284.214844 C 55.503906 282.078125 53.972656 279.90625 52.496094 277.699219 C 51.019531 275.488281 49.597656 273.246094 48.234375 270.964844 C 46.867188 268.6875 45.558594 266.375 44.304688 264.03125 C 43.054688 261.6875 41.859375 259.316406 40.722656 256.914062 C 39.585938 254.511719 38.511719 252.082031 37.492188 249.628906 C 36.476562 247.171875 35.519531 244.695312 34.625 242.191406 C 33.730469 239.691406 32.898438 237.167969 32.125 234.625 C 31.355469 232.082031 30.644531 229.523438 30 226.945312 C 29.355469 224.367188 28.773438 221.777344 28.253906 219.171875 C 27.734375 216.5625 27.28125 213.945312 26.890625 211.316406 C 26.5 208.691406 26.175781 206.054688 25.917969 203.410156 C 25.65625 200.765625 25.460938 198.117188 25.328125 195.460938 C 25.199219 192.808594 25.132812 190.152344 25.132812 187.496094 C 25.132812 184.839844 25.199219 182.183594 25.328125 179.527344 C 25.460938 176.875 25.65625 174.226562 25.917969 171.582031 C 26.175781 168.9375 26.5 166.300781 26.890625 163.671875 C 27.28125 161.042969 27.734375 158.425781 28.253906 155.820312 C 28.773438 153.214844 29.355469 150.621094 30 148.042969 C 30.644531 145.46875 31.355469 142.90625 32.125 140.363281 C 32.898438 137.820312 33.730469 135.300781 34.625 132.796875 C 35.519531 130.296875 36.476562 127.816406 37.492188 125.363281 C 38.511719 122.90625 39.585938 120.480469 40.722656 118.078125 C 41.859375 115.675781 43.054688 113.300781 44.304688 110.957031 C 45.558594 108.617188 46.867188 106.304688 48.234375 104.023438 C 49.597656 101.746094 51.019531 99.5 52.496094 97.292969 C 53.972656 95.082031 55.503906 92.910156 57.085938 90.777344 C 58.667969 88.640625 60.304688 86.546875 61.988281 84.496094 C 63.675781 82.441406 65.410156 80.429688 67.195312 78.460938 C 68.976562 76.492188 70.808594 74.566406 72.6875 72.6875 C 74.566406 70.808594 76.492188 68.976562 78.460938 67.195312 C 80.429688 65.410156 82.441406 63.675781 84.496094 61.988281 C 86.546875 60.304688 88.640625 58.667969 90.777344 57.085938 C 92.910156 55.503906 95.082031 53.972656 97.292969 52.496094 C 99.5 51.019531 101.746094 49.597656 104.023438 48.234375 C 106.304688 46.867188 108.617188 45.558594 110.957031 44.304688 C 113.300781 43.054688 115.675781 41.859375 118.078125 40.722656 C 120.480469 39.585938 122.90625 38.511719 125.363281 37.492188 C 127.816406 36.476562 130.296875 35.519531 132.796875 34.625 C 135.300781 33.730469 137.820312 32.898438 140.363281 32.125 C 142.90625 31.355469 145.46875 30.644531 148.042969 30 C 150.621094 29.355469 153.214844 28.773438 155.820312 28.253906 C 158.425781 27.734375 161.042969 27.28125 163.671875 26.890625 C 166.300781 26.5 168.9375 26.175781 171.582031 25.917969 C 174.226562 25.65625 176.875 25.460938 179.527344 25.328125 C 182.183594 25.199219 184.839844 25.132812 187.496094 25.132812 C 190.152344 25.132812 192.808594 25.199219 195.460938 25.328125 C 198.117188 25.460938 200.765625 25.65625 203.410156 25.917969 C 206.054688 26.175781 208.691406 26.5 211.316406 26.890625 C 213.945312 27.28125 216.5625 27.734375 219.171875 28.253906 C 221.777344 28.773438 224.367188 29.355469 226.945312 30 C 229.523438 30.644531 232.082031 31.355469 234.625 32.125 C 237.167969 32.898438 239.691406 33.730469 242.191406 34.625 C 244.695312 35.519531 247.171875 36.476562 249.628906 37.492188 C 252.082031 38.511719 254.511719 39.585938 256.914062 40.722656 C 259.316406 41.859375 261.6875 43.054688 264.03125 44.304688 C 266.375 45.558594 268.6875 46.867188 270.964844 48.234375 C 273.246094 49.597656 275.488281 51.019531 277.699219 52.496094 C 279.90625 53.972656 282.078125 55.503906 284.214844 57.085938 C 286.347656 58.667969 288.441406 60.304688 290.496094 61.988281 C 292.550781 63.675781 294.5625 65.410156 296.53125 67.195312 C 298.5 68.976562 300.421875 70.808594 302.300781 72.6875 C 304.179688 74.566406 306.011719 76.492188 307.796875 78.460938 C 309.582031 80.429688 311.316406 82.441406 313 84.496094 C 314.6875 86.546875 316.320312 88.640625 317.90625 90.777344 C 319.488281 92.910156 321.015625 95.082031 322.492188 97.292969 C 323.96875 99.5 325.390625 101.746094 326.757812 104.023438 C 328.121094 106.304688 329.433594 108.617188 330.683594 110.957031 C 331.9375 113.300781 333.132812 115.675781 334.265625 118.078125 C 335.402344 120.480469 336.480469 122.90625 337.496094 125.363281 C 338.515625 127.816406 339.46875 130.296875 340.363281 132.796875 C 341.261719 135.300781 342.09375 137.820312 342.863281 140.363281 C 343.636719 142.90625 344.34375 145.46875 344.988281 148.042969 C 345.636719 150.621094 346.21875 153.214844 346.734375 155.820312 C 347.253906 158.425781 347.707031 161.042969 348.097656 163.671875 C 348.488281 166.300781 348.8125 168.9375 349.074219 171.582031 C 349.335938 174.226562 349.53125 176.875 349.660156 179.527344 C 349.789062 182.183594 349.855469 184.839844 349.855469 187.496094 Z M 349.855469 187.496094 " fill-opacity="1" fill-rule="nonzero"/></g><g clip-path="url(#38eecec4d1)"><g clip-path="url(#ccdbfd4dd0)"><g clip-path="url(#bf66476e1c)"><path fill="#ff9100" d="M 201.941406 88.925781 C 199.375 101.113281 190.066406 109.472656 181.160156 107.589844 C 172.253906 105.710938 167.113281 94.308594 169.683594 82.121094 C 172.257812 69.933594 181.558594 61.574219 190.46875 63.453125 C 199.375 65.332031 204.511719 76.734375 201.941406 88.925781 Z M 217.742188 196.222656 C 216.136719 195.253906 214.644531 194.136719 213.257812 192.871094 C 211.875 191.605469 210.628906 190.21875 209.523438 188.707031 C 208.414062 187.195312 207.464844 185.589844 206.671875 183.890625 C 205.878906 182.191406 205.261719 180.429688 204.820312 178.609375 C 204.652344 177.9375 204.425781 177.285156 204.132812 176.65625 C 203.839844 176.027344 203.488281 175.433594 203.078125 174.875 C 202.667969 174.316406 202.207031 173.800781 201.695312 173.332031 C 201.183594 172.863281 200.632812 172.449219 200.039062 172.089844 C 199.445312 171.730469 198.824219 171.433594 198.171875 171.195312 C 197.519531 170.957031 196.851562 170.789062 196.164062 170.683594 C 195.480469 170.578125 194.789062 170.539062 194.097656 170.570312 C 193.40625 170.601562 192.722656 170.699219 192.046875 170.863281 C 191.140625 171.085938 190.222656 171.265625 189.296875 171.394531 C 188.371094 171.527344 187.441406 171.613281 186.507812 171.65625 C 185.574219 171.695312 184.640625 171.691406 183.707031 171.640625 C 182.773438 171.589844 181.847656 171.492188 180.921875 171.351562 C 180 171.210938 179.082031 171.023438 178.175781 170.789062 C 177.273438 170.558594 176.378906 170.285156 175.5 169.964844 C 174.625 169.644531 173.761719 169.28125 172.917969 168.878906 C 172.078125 168.472656 171.253906 168.03125 170.457031 167.542969 C 169.65625 167.058594 168.882812 166.535156 168.136719 165.976562 C 167.386719 165.414062 166.667969 164.820312 165.980469 164.1875 C 165.289062 163.554688 164.632812 162.890625 164.007812 162.195312 C 163.386719 161.5 162.796875 160.777344 162.242188 160.023438 C 161.691406 159.269531 161.175781 158.488281 160.699219 157.683594 C 160.222656 156.878906 159.789062 156.054688 159.394531 155.207031 C 158.996094 154.359375 158.644531 153.496094 158.335938 152.613281 C 158.023438 151.730469 157.757812 150.835938 157.535156 149.929688 C 157.3125 149.019531 157.136719 148.105469 157.003906 147.179688 C 156.871094 146.253906 156.785156 145.324219 156.742188 144.390625 C 156.703125 143.457031 156.707031 142.523438 156.757812 141.589844 C 156.808594 140.65625 156.90625 139.726562 157.046875 138.804688 C 157.191406 137.878906 157.378906 136.964844 157.609375 136.058594 C 157.839844 135.152344 158.117188 134.261719 158.4375 133.382812 C 158.753906 132.503906 159.117188 131.644531 159.523438 130.800781 C 159.925781 129.957031 160.371094 129.136719 160.855469 128.335938 C 161.339844 127.539062 161.863281 126.765625 162.425781 126.015625 C 162.984375 125.269531 163.582031 124.550781 164.210938 123.859375 C 164.84375 123.171875 165.507812 122.515625 166.203125 121.890625 C 166.898438 121.265625 167.625 120.675781 168.378906 120.125 C 169.132812 119.570312 169.910156 119.058594 170.714844 118.582031 C 171.519531 118.105469 172.34375 117.667969 173.191406 117.273438 C 174.039062 116.878906 174.902344 116.527344 175.785156 116.214844 C 176.667969 115.90625 177.5625 115.640625 178.472656 115.417969 C 179.546875 115.152344 180.628906 114.914062 181.714844 114.703125 C 182.800781 114.496094 183.890625 114.308594 184.988281 114.152344 C 186.085938 113.996094 187.183594 113.867188 188.285156 113.761719 C 189.386719 113.660156 190.492188 113.585938 191.597656 113.535156 C 192.703125 113.488281 193.8125 113.464844 194.917969 113.472656 C 196.027344 113.476562 197.132812 113.507812 198.238281 113.570312 C 199.34375 113.628906 200.445312 113.714844 201.546875 113.832031 C 202.648438 113.945312 203.746094 114.085938 204.839844 114.253906 C 205.933594 114.421875 207.023438 114.617188 208.109375 114.835938 C 209.195312 115.058594 210.273438 115.308594 211.347656 115.582031 C 212.417969 115.855469 213.484375 116.15625 214.542969 116.484375 C 215.597656 116.8125 216.648438 117.164062 217.6875 117.542969 C 218.730469 117.921875 219.761719 118.324219 220.78125 118.753906 C 221.800781 119.183594 222.8125 119.636719 223.808594 120.113281 C 224.808594 120.59375 225.792969 121.09375 226.765625 121.621094 C 227.742188 122.148438 228.699219 122.699219 229.648438 123.273438 C 230.59375 123.847656 231.527344 124.445312 232.445312 125.066406 C 233.359375 125.6875 234.261719 126.328125 235.148438 126.992188 C 236.035156 127.65625 236.902344 128.339844 237.753906 129.046875 C 238.605469 129.753906 239.441406 130.484375 240.257812 131.230469 C 241.074219 131.980469 241.871094 132.746094 242.648438 133.535156 C 243.429688 134.320312 244.1875 135.125 244.925781 135.949219 C 245.667969 136.773438 246.382812 137.617188 247.082031 138.476562 C 247.78125 139.335938 248.457031 140.210938 249.109375 141.105469 C 249.765625 141.996094 250.398438 142.90625 251.007812 143.828125 C 251.617188 144.753906 252.207031 145.691406 252.769531 146.644531 C 253.332031 147.597656 253.875 148.5625 254.390625 149.542969 C 254.90625 150.523438 255.398438 151.511719 255.867188 152.515625 C 256.335938 153.519531 256.777344 154.535156 257.195312 155.558594 C 257.613281 156.585938 258.007812 157.621094 258.375 158.664062 C 258.742188 159.707031 259.082031 160.761719 259.398438 161.824219 C 259.714844 162.882812 260.003906 163.953125 260.265625 165.027344 C 260.601562 166.390625 260.832031 167.773438 260.960938 169.167969 C 261.09375 170.566406 261.121094 171.964844 261.042969 173.367188 C 260.96875 174.769531 260.789062 176.160156 260.507812 177.535156 C 260.226562 178.910156 259.847656 180.257812 259.367188 181.574219 C 258.886719 182.894531 258.3125 184.171875 257.644531 185.40625 C 256.976562 186.640625 256.222656 187.820312 255.378906 188.941406 C 254.539062 190.066406 253.617188 191.121094 252.621094 192.109375 C 251.621094 193.09375 250.558594 194.003906 249.425781 194.832031 C 248.292969 195.664062 247.105469 196.40625 245.867188 197.0625 C 244.625 197.71875 243.339844 198.277344 242.019531 198.742188 C 240.695312 199.210938 239.34375 199.574219 237.964844 199.84375 C 236.585938 200.109375 235.195312 200.273438 233.792969 200.335938 C 232.390625 200.394531 230.992188 200.355469 229.597656 200.210938 C 228.199219 200.0625 226.820312 199.816406 225.460938 199.46875 C 224.101562 199.121094 222.773438 198.675781 221.480469 198.132812 C 220.1875 197.585938 218.941406 196.949219 217.742188 196.222656 Z M 245.113281 92.261719 C 238.910156 105.074219 226.28125 111.792969 216.917969 107.257812 C 207.550781 102.722656 204.984375 88.652344 211.191406 75.835938 C 217.394531 63.019531 230.015625 56.304688 239.386719 60.84375 C 248.753906 65.375 251.316406 79.441406 245.113281 92.261719 Z M 250.003906 95.226562 C 241.507812 106.652344 241.382812 120.949219 249.738281 127.164062 C 258.085938 133.375 271.746094 129.144531 280.242188 117.71875 C 288.746094 106.296875 288.863281 92 280.511719 85.785156 C 272.164062 79.578125 258.503906 83.800781 250.003906 95.226562 Z M 272.910156 131.96875 C 263.292969 139.882812 260.175781 151.996094 265.960938 159.027344 C 271.746094 166.058594 284.230469 165.34375 293.851562 157.433594 C 303.472656 149.523438 306.585938 137.410156 300.804688 130.375 C 295.019531 123.34375 282.535156 124.058594 272.910156 131.96875 Z M 272.910156 131.96875 " fill-opacity="1" fill-rule="nonzero"/></g></g></g><g clip-path="url(#fe47a2bebd)"><g clip-path="url(#105f1afd90)"><g clip-path="url(#d9d1ee54fb)"><path fill="#ff9100" d="M 157.695312 230.664062 L 171.542969 239.066406 L 154.492188 267.179688 L 140.644531 258.78125 Z M 157.695312 230.664062 " fill-opacity="1" fill-rule="nonzero"/></g></g></g><g clip-path="url(#b3fecc8de8)"><g clip-path="url(#6e84947b94)"><g clip-path="url(#2b9dc30dc3)"><path fill="#ff9100" d="M 140.183594 308.492188 C 136.46875 314.609375 128.496094 316.566406 122.367188 312.855469 L 114.984375 308.371094 C 108.859375 304.65625 106.90625 296.683594 110.625 290.566406 L 134.648438 250.964844 C 138.367188 244.835938 146.335938 242.886719 152.453125 246.597656 L 159.84375 251.078125 C 165.964844 254.789062 167.917969 262.773438 164.207031 268.890625 Z M 140.183594 308.492188 " fill-opacity="1" fill-rule="nonzero"/></g></g></g><g clip-path="url(#d94ed1bb99)"><g clip-path="url(#6b33a6e6be)"><g clip-path="url(#91b9b1197b)"><path fill="#ff9100" d="M 263.875 166.183594 C 254.726562 128.820312 217.03125 105.957031 179.667969 115.109375 C 142.304688 124.257812 119.433594 161.953125 128.585938 199.320312 C 137.734375 236.683594 175.4375 259.550781 212.800781 250.398438 C 250.167969 241.25 273.027344 203.546875 263.875 166.183594 Z M 141.105469 196.253906 C 133.644531 165.796875 152.273438 135.074219 182.730469 127.613281 C 213.1875 120.15625 243.90625 138.792969 251.363281 169.25 C 258.824219 199.707031 240.195312 230.429688 209.738281 237.886719 C 179.28125 245.347656 148.5625 226.710938 141.105469 196.253906 Z M 141.105469 196.253906 " fill-opacity="1" fill-rule="nonzero"/></g></g></g><g clip-path="url(#a9197025fd)"><g clip-path="url(#3a370fc7fe)"><g clip-path="url(#e08e566332)"><path fill="#ff9100" d="M 166.148438 204.820312 C 159.539062 177.839844 176.058594 150.59375 203.050781 143.980469 C 203.765625 143.804688 204.488281 143.710938 205.214844 143.570312 C 198.578125 141.417969 191.289062 140.988281 184.023438 142.765625 C 163.15625 147.878906 150.386719 168.9375 155.496094 189.796875 C 157.46875 197.855469 161.832031 204.679688 167.628906 209.769531 C 167.046875 208.167969 166.5625 206.511719 166.148438 204.820312 Z M 166.148438 204.820312 " fill-opacity="1" fill-rule="nonzero"/></g></g></g></svg>